# xmcd
#
# Track frame offsets: 
#        150
#        15317
#        23795
#        36098
#        49293
#        62185
#        74380
#        84247
#        93683
#        113581
#        127176
#        135923
#
# Disc length: 1924 seconds
#
# Revision: 0
# Processed by: cddbd v1.5.2PL0 Copyright (c) Steve Scherf et al.
# Submitted via: ExactAudioCopy v0.99pb4
#
DISCID=9b07820c
DTITLE=Various Artist - Bluegrass Mountain Revival
DYEAR=2003
DGENRE=Country
TTITLE0=Various Artist - Fall Down Children
TTITLE1=Various Artist - St. Ann's Reel
TTITLE2=Various Artist - Oh, What A Glad Day
TTITLE3=Various Artist - Minstrel Of The Lord
TTITLE4=Various Artist - Simple Gifts
TTITLE5=Various Artist - I Serve The Risen Lord
TTITLE6=Various Artist - Lord, I Want To Thank You
TTITLE7=Various Artist - Rock Of Love
TTITLE8=Various Artist - There Is A Fountain
TTITLE9=Various Artist - Honor The Lord
TTITLE10=Various Artist - It's A Mighty Hard Road
TTITLE11=Various Artist - Walking On Holy Ground
EXTD=
EXTT0=
EXTT1=
EXTT2=
EXTT3=
EXTT4=
EXTT5=
EXTT6=
EXTT7=
EXTT8=
EXTT9=
EXTT10=
EXTT11=
PLAYORDER=
